<svg xmlns="http://www.w3.org/2000/svg" viewBox="0 0 256 256" fill="none" shape-rendering="auto"><metadata xmlns:rdf="http://www.w3.org/1999/02/22-rdf-syntax-ns#" xmlns:xsi="http://www.w3.org/2001/XMLSchema-instance" xmlns:dc="http://purl.org/dc/elements/1.1/" xmlns:dcterms="http://purl.org/dc/terms/"><rdf:RDF><rdf:Description><dc:title>Croodles - Doodle your face</dc:title><dc:creator>vijay verma</dc:creator><dc:source xsi:type="dcterms:URI">https://www.figma.com/community/file/966199982810283152</dc:source><dcterms:license xsi:type="dcterms:URI">https://creativecommons.org/licenses/by/4.0/</dcterms:license><dc:rights>Remix of „Croodles - Doodle your face” (https://www.figma.com/community/file/966199982810283152) by „vijay verma”, licensed under „CC BY 4.0” (https://creativecommons.org/licenses/by/4.0/)</dc:rights></rdf:Description></rdf:RDF></metadata><mask id="viewboxMask"><rect width="256" height="256" rx="0" ry="0" x="0" y="0" fill="#fff" /></mask><g mask="url(#viewboxMask)"><path d="M73.3 106.5c2-5.5 4-9.8 5.4-12.2-.1-.4 0-.8.1-1.1 3-4.9 9-9.3 16.4-12.9a90.7 90.7 0 0 1 26.3-7.5c19.2-2.5 40.7.5 53.9 14.4.2.3.4.6.4 1 1 1.1 2.2 3.2 3.6 6a109 109 0 0 1 4.4 10.2c1.4-.5 3-.7 4.6-.5a7 7 0 0 1 5.4 3.3c2 3.5 2.9 10 1.6 15.8a6.7 6.7 0 0 1-2.6 4.2 6 6 0 0 1-2.3 1c.5 2.8 1 5.6 1.3 8.5 2.8 23.3-1.3 49.6-26 62.6-23.6 12.4-47 16-65.6 12.3-18.7-3.8-32.6-15-36.7-32.5-3.2-13.5-1.3-31 2.2-46.7-1.5-.3-3-1.4-3.9-3-1.3-2.1-2-5.2-1.7-9.2.5-6.2 2.1-10.6 4.8-12.8a7 7 0 0 1 4.6-1.8 9 9 0 0 1 3.8.9Z" fill="#ffffff"/><g stroke="#000" stroke-width="3" stroke-linecap="round" stroke-linejoin="round"><path d="M79 93.7c-6 10-22.2 57.6-15.5 86.4 8.1 34.4 54.6 44.9 102.1 19.7C214.3 174 182.2 95.5 175.3 88"/><path d="M184.3 105.4c2.6-1.1 7.4-1.3 9.3 2 1.8 3.2 2.7 9.3 1.4 15.1-.7 3.3-3 4.3-5 4.3M72.5 107.8c-5.9-3.5-11.4-.2-12.4 12.2-.7 7.9 2.9 11.4 5.4 11"/></g><g transform="translate(116 120)"><path d="M15.3 18c-4 .9-7.2 6.8-4 10 4 4 12.3 4.7 13.1 0 .7-3.9-1.3-6-2.7-6.7" stroke="#000" stroke-width="3" stroke-linecap="round" stroke-linejoin="round"/></g><g transform="translate(57 132)"></g><g transform="translate(86 184)"><path d="M15 14s4.2 1.6 7 0c2.9-1.5 3-5.9 5.2-3.6 2.6 3 3 4.9 4.5 6.3 1.5 1.5 2.6-5 3.9-7 1.2-2.3 4.6 6.1 6.6 6.1 1.9 0 1.4-9.5 3.6-7.5 2.1 1.9 1.8 5.4 8.8 3.4" stroke="#000" stroke-width="3" stroke-linecap="round" stroke-linejoin="round"/></g><g transform="translate(-2 -17)"><g stroke="#000000" stroke-width="3" stroke-linecap="round" stroke-linejoin="round"><path d="M103.8 101.4c1.8 1.8 14.1 4 20.6-.6M105.4 96.1c10.3 0 11.4-19.4 20-18.9M71.3 176.8c3.6-1.7 9.4-5.3 10.2-20.9 1-19.5-11.7-33.8-4.7-44M82.3 105c2.5 3.6 7.4 2.8 11.1 0 8.3-6.4 7.2-15 14.7-19.7M100 60.5c-.5-.5-7-.2-15.6 3.8-13 6-16.8 16.2-19 30.2m131.9 68c.5 3.3 1.6 7.7-1.6 11M189.2 175c1.8 1.3 4.8 6 2.7 15.2M204 130.7c2.6 4.3 7.4 7.4 5 18.4M206 152.9c2.3 2.7 6 10 2.6 17.3M129.7 77.8c1.7-3.8 8.6-8.7 11.4-4.9 4.3 6 3.8 10.3 10.8 15.1M125.7 94.3c.8 2.6 5.7 7.4 16.8 6.5"/><path d="M76.3 106.4c-4.5 1.5-14 9-9.2 26 7 25.3 3.2 28 2.1 35.6M65.6 80.7c-2.1-1.7-11.6 0-14 10M61.1 91.3c-4.8 0-14.5 8.6-11.3 28M63.8 100.5c-3.6-.6-10.9 6-11.3 36.7"/><path d="M67.6 105.3c-4.1 3.5-10.5 10-7 24.3 4.3 17.9 4.3 30.8 0 35.7M48.7 124.2c-2.7 2.7-4.8 15.2 1 20.6M57.8 142.7c-2 1.7-5.5 8-2.5 20.4M50 158.8c-1 6.6.3 20.7 12.8 24.9M61.1 171.2c2.6 2.2 7 8.8 5 17.9M70.3 182.6l5.4 9.7M69.8 101.6c3 .1 10.5-1.6 15.6-9.8M90.9 77.2c-9.2 6-16.3 3.3-19 17.9M75.7 76.7c19.5-4.3 25.7-15.1 37.8-15.1 7 0 9.8 4.3 10.8 7.5"/><path d="M82.7 87.5c3.5-2 11.4-3.8 17.3-10.8 6-7 14.6-11.9 20-6.5M91.4 90.2c5.4-3.8 17.4-15 24.3-13.3M124.3 59.4c5-3.2 18-6.9 24.9 3M148.7 68.4c3.8-2 12.5-5.3 16.9-2.9 4.4 2.5 5.8 7.3 6 9.4M164.9 80.5c5.4-1 15.4-5.6 21 2.1 5.7 7.8 4.9 16.3 8.1 21.7"/><path d="M167 84.8c6-1.6 14.2-.8 16.8 9.2M168.1 89.1c3 .2 9.4 2.7 10.3 11.4 1 10.8-.6 20 2.1 25.4M149.7 79.4c3.5.7 11 5.3 14 17.8M134.6 87c6.5-2.7 10.8 2.1 17.3 8M133 93a11 11 0 0 1 13.5 5.3c3.9 7 11.3 8.7 14.6 8.7M163.8 102c2.3 5 1.7 13.8 10.8 16.8M183.2 100.5c2.4 0 6.8 3.3 6 16.7M182.7 114.5c1.6 7 4.3 20 10.3 20.5M180 131.8c-.8 4.7-1.4 15.8 3.3 22.7M85 161c.6 3 1.9 10 1 13.5M92 174a70 70 0 0 1-4.6 15M77.9 181.5c2.7 1.6 4.3 4.9 4.3 10.9M184.9 143.2c1.6 3.2 5.9 5.9 3.2 15.6M182.2 161.5c-2.2 2.5-8.7 17.8.9 26.5"/><path d="M186.3 170.7c-2.1 0-5.6 1.8-2.1 9.2M184.9 134c3.2 7.5 10.8 7 10.8 16.7s-5 12.8-7.6 15.7M196.7 98.3c1.7 2.4 5 7.9 1.2 13.7M193.5 116.1c2.9-.7 8.6 0 8.6 8.1M161.6 82.6c-2.1-6.4-1.6-11.3-10.2-10.2M95.2 94.5c-3.8 3.3-6 4.9-10.3 5.4M169.2 95.6c2.6 1.4 4.3 6.5 3.1 14M191.9 121c2 1.4 6.4 6.2 8 13.5 2.2 9.2.6 21.6 1.7 26M196.2 180.4c2.5-1.6 7.7-6.1 8.1-11.3M202.1 179.9c1 1.4 2 5.5-1 10.3M208.2 175.2c0 3 1 6.8 2.6 10.6M128.1 71.3c2.2-4.4 8.7-9.5 13-7M118.4 97.2c0-4.3 2-9.6 5.4-11.9 4.9-3.2 9.2-3.7 13.5-3.7"/></g></g><g transform="translate(71 151)"><g stroke="#000" stroke-width="3" stroke-linecap="round" stroke-linejoin="round"><path d="M61 24.9c-14.7 2.1-46 8-58 11.5M126.8 22.4c-14.7 2.1-46.5 1-58.5 1.7"/><path d="M60.3 25.3c-14.7 2-38 11.6-51.5 13.1M123.5 26.2c-14.8 2.1-40.6-1.6-53.9-1.6M61 24.2C46.4 26.3 15.9 30 3.6 31.7M128 17c-14.7 2.1-47.5 4.4-59.8 6.2"/></g></g><g transform="translate(71 89)"><g stroke="#000" stroke-width="3" stroke-linecap="round" stroke-linejoin="round"><path d="M20.8 12.3c1.7-1.3 6.2-2.6 11.3-2 4.5.7 6.4 2.3 7.7 4.3M72.9 14.2c2-3 5.7-3.7 8-4 2.4-.2 5.1-.2 7.3.4M4 21.2l13.7 6.5M48.2 31.5a31.5 31.5 0 0 1 20.5-1.8M96.9 27.3a193 193 0 0 0 13.1-8.6M24.6 49.9c-5-3.1-10.5-15.7-5.9-22.7 5.3-7.8 23.8-8.7 28.1 2.4 2.6 6.5 1.6 12.7 1 14.3-1.9 4.5-10.3 13.9-23.2 6ZM95.5 26.5c-5.6-8-21-8.3-25.4.4-1.9 3.7-3 14.2 4.4 20.2 3.8 3 18 8.2 22.8-5.2 2.2-6.3.4-12.2-1.8-15.4Z"/><path d="M34.4 29.8c-.4.2-1.1 1-.8 1.8.4 1.2 3.4 2.5 3.5.9.1-1.7-.5-2.3-1.2-1.6M81 27.7c-.6.5-1.7 1.8-1 2.3 1 .6 4.2 2.3 4 0-.3-1.9-1.1-1.7-1.5-1.4l-.9.7"/></g></g></g></svg>